<svg width="33" height="34" viewBox="0 0 33 34" fill="none" xmlns="http://www.w3.org/2000/svg">
<path d="M17 0.318909C13.9828 0.319463 11.0224 1.13903 8.43455 2.69018C5.84666 4.24133 3.72838 6.46589 2.30567 9.12655C0.882955 11.7872 0.209174 14.7842 0.356199 17.7977C0.503223 20.8113 1.46554 23.7284 3.14049 26.238C4.81545 28.7475 7.14021 30.7553 9.8668 32.0472C12.5934 33.339 15.6195 33.8665 18.6224 33.5734C21.6253 33.2802 24.4923 32.1774 26.9175 30.3826C29.3428 28.5878 31.2354 26.1683 32.3933 23.3822C32.9617 22.0156 31.6 20.6422 30.23 21.1989C27.882 22.15 25.2748 22.2482 22.8619 21.4763C20.449 20.7044 18.3829 19.1113 17.0229 16.9739C15.6629 14.8366 15.0949 12.2902 15.4177 9.7775C15.7406 7.26479 16.9338 4.94468 18.79 3.22058L18.9183 3.08724C19.8367 2.03724 19.1067 0.332242 17.655 0.332242H17.2117L17.0983 0.322242L16.9983 0.318909H17Z" fill="white"/>
</svg>
