<svg width="38" height="36" viewBox="0 0 38 36" fill="none" xmlns="http://www.w3.org/2000/svg">
<path d="M12.7383 11.2322L2.10498 12.7739L1.91664 12.8122C1.63154 12.8879 1.37163 13.0379 1.16346 13.2469C0.955292 13.4559 0.806315 13.7164 0.731746 14.0018C0.657177 14.2872 0.659688 14.5872 0.739022 14.8713C0.818356 15.1555 0.97167 15.4134 1.18331 15.6189L8.88664 23.1172L7.06998 33.7089L7.04831 33.8922C7.03086 34.1871 7.09209 34.4813 7.22573 34.7447C7.35937 35.0082 7.56062 35.2313 7.80887 35.3914C8.05712 35.5515 8.34346 35.6427 8.63856 35.6557C8.93366 35.6688 9.22692 35.6031 9.48831 35.4656L18.9983 30.4656L28.4866 35.4656L28.6533 35.5422C28.9284 35.6506 29.2274 35.6838 29.5196 35.6385C29.8118 35.5932 30.0866 35.4709 30.316 35.2843C30.5453 35.0977 30.7209 34.8535 30.8247 34.5766C30.9285 34.2998 30.9568 34.0003 30.9066 33.7089L29.0883 23.1172L36.795 15.6172L36.925 15.4756C37.1107 15.2468 37.2324 14.973 37.2778 14.6819C37.3233 14.3908 37.2907 14.0929 37.1835 13.8184C37.0762 13.544 36.8982 13.3029 36.6675 13.1197C36.4367 12.9366 36.1616 12.8178 35.87 12.7756L25.2366 11.2322L20.4833 1.59889C20.3458 1.31979 20.1328 1.08475 19.8686 0.920402C19.6044 0.756051 19.2995 0.668945 18.9883 0.668945C18.6772 0.668945 18.3722 0.756051 18.108 0.920402C17.8438 1.08475 17.6309 1.31979 17.4933 1.59889L12.7383 11.2322Z" fill="white"/>
</svg>
