<svg width="34" height="34" viewBox="0 0 34 34" fill="none" xmlns="http://www.w3.org/2000/svg">
<path d="M17 28.6666C17.4082 28.6667 17.8022 28.8166 18.1073 29.0878C18.4124 29.3591 18.6073 29.7329 18.655 30.1383L18.6667 30.3333V32C18.6662 32.4248 18.5035 32.8334 18.2119 33.1423C17.9203 33.4512 17.5218 33.637 17.0977 33.6619C16.6736 33.6868 16.256 33.5489 15.9303 33.2762C15.6045 33.0036 15.3952 32.6168 15.345 32.195L15.3333 32V30.3333C15.3333 29.8913 15.5089 29.4674 15.8215 29.1548C16.1341 28.8422 16.558 28.6666 17 28.6666Z" fill="white"/>
<path d="M27.5217 25.1833L27.6784 25.3217L28.845 26.4883C29.1439 26.7883 29.3175 27.1907 29.3304 27.614C29.3433 28.0372 29.1947 28.4495 28.9146 28.7671C28.6345 29.0847 28.2441 29.2838 27.8226 29.324C27.401 29.3641 26.98 29.2423 26.645 28.9833L26.4884 28.845L25.3217 27.6783C25.0341 27.3912 24.8613 27.0089 24.8358 26.6033C24.8103 26.1977 24.9339 25.7968 25.1833 25.476C25.4327 25.1551 25.7907 24.9364 26.19 24.861C26.5894 24.7857 27.0025 24.8588 27.3517 25.0667L27.5217 25.1833Z" fill="white"/>
<path d="M8.67834 25.3216C8.9653 25.6086 9.13769 25.9904 9.16316 26.3955C9.18863 26.8005 9.06543 27.2009 8.81668 27.5216L8.67834 27.6783L7.51168 28.8449C7.21175 29.1439 6.80929 29.3174 6.38604 29.3303C5.96279 29.3433 5.55049 29.1946 5.23288 28.9145C4.91527 28.6345 4.71617 28.244 4.67601 27.8225C4.63586 27.401 4.75766 26.9799 5.01668 26.6449L5.15501 26.4883L6.32168 25.3216C6.63422 25.0092 7.05807 24.8336 7.50001 24.8336C7.94195 24.8336 8.3658 25.0092 8.67834 25.3216Z" fill="white"/>
<path d="M3.66669 15.3333C4.09149 15.3338 4.50008 15.4964 4.80897 15.7881C5.11787 16.0797 5.30375 16.4782 5.32864 16.9023C5.35354 17.3264 5.21557 17.7439 4.94292 18.0697C4.67027 18.3955 4.28352 18.6048 3.86169 18.655L3.66669 18.6666H2.00003C1.57523 18.6662 1.16664 18.5035 0.857745 18.2119C0.548851 17.9203 0.362967 17.5217 0.338072 17.0977C0.313177 16.6736 0.45115 16.256 0.7238 15.9303C0.996451 15.6045 1.3832 15.3952 1.80503 15.345L2.00003 15.3333H3.66669Z" fill="white"/>
<path d="M32 15.3333C32.4248 15.3338 32.8334 15.4964 33.1423 15.7881C33.4512 16.0797 33.6371 16.4782 33.662 16.9023C33.6869 17.3264 33.5489 17.7439 33.2763 18.0697C33.0036 18.3955 32.6169 18.6048 32.195 18.655L32 18.6666H30.3334C29.9086 18.6662 29.5 18.5035 29.1911 18.2119C28.8822 17.9203 28.6963 17.5217 28.6714 17.0977C28.6465 16.6736 28.7845 16.256 29.0571 15.9303C29.3298 15.6045 29.7165 15.3952 30.1384 15.345L30.3334 15.3333H32Z" fill="white"/>
<path d="M7.35502 5.0166L7.51169 5.15494L8.67836 6.3216C8.97727 6.62153 9.15081 7.02399 9.16374 7.44724C9.17666 7.87049 9.028 8.28279 8.74794 8.6004C8.46789 8.91801 8.07744 9.11711 7.6559 9.15727C7.23436 9.19742 6.81334 9.07562 6.47836 8.8166L6.32169 8.67827L5.15502 7.5116C4.86851 7.2244 4.69658 6.84256 4.67147 6.43766C4.64636 6.03275 4.76979 5.63259 5.01863 5.31219C5.26746 4.99179 5.62462 4.77315 6.02314 4.69726C6.42165 4.62136 6.83417 4.69342 7.18336 4.89994L7.35502 5.0166Z" fill="white"/>
<path d="M28.845 5.15499C29.132 5.44198 29.3044 5.82381 29.3298 6.22885C29.3553 6.6339 29.2321 7.03432 28.9834 7.35499L28.845 7.51166L27.6784 8.67832C27.3784 8.97724 26.976 9.15078 26.5527 9.1637C26.1295 9.17663 25.7172 9.02796 25.3996 8.74791C25.0819 8.46785 24.8828 8.0774 24.8427 7.65587C24.8025 7.23433 24.9243 6.81331 25.1834 6.47832L25.3217 6.32166L26.4884 5.15499C26.8009 4.84254 27.2247 4.66701 27.6667 4.66701C28.1086 4.66701 28.5325 4.84254 28.845 5.15499Z" fill="white"/>
<path d="M17 0.333313C17.4082 0.333367 17.8022 0.48324 18.1073 0.754505C18.4124 1.02577 18.6073 1.39956 18.655 1.80498L18.6667 1.99998V3.66665C18.6662 4.09145 18.5035 4.50003 18.2119 4.80893C17.9203 5.11782 17.5218 5.3037 17.0977 5.3286C16.6736 5.35349 16.256 5.21552 15.9303 4.94287C15.6045 4.67022 15.3952 4.28347 15.345 3.86165L15.3333 3.66665V1.99998C15.3333 1.55795 15.5089 1.13403 15.8215 0.821468C16.1341 0.508908 16.558 0.333313 17 0.333313Z" fill="white"/>
<path d="M17 8.66665C18.6328 8.66655 20.2297 9.14613 21.5922 10.0458C22.9548 10.9455 24.023 12.2256 24.6643 13.7272C25.3055 15.2289 25.4915 16.8858 25.1991 18.4922C24.9068 20.0986 24.1489 21.5837 23.0197 22.7631C21.8905 23.9425 20.4398 24.7641 18.8476 25.126C17.2554 25.4879 15.592 25.3741 14.0639 24.7988C12.5359 24.2234 11.2105 23.2118 10.2524 21.8896C9.2944 20.5674 8.74588 18.9929 8.67502 17.3616L8.66668 17L8.67502 16.6383C8.76821 14.4929 9.68603 12.4663 11.2371 10.9811C12.7881 9.49588 14.8526 8.66677 17 8.66665Z" fill="white"/>
<path d="M17 28.6666C17.4082 28.6667 17.8022 28.8166 18.1073 29.0878C18.4124 29.3591 18.6073 29.7329 18.655 30.1383L18.6667 30.3333V32C18.6662 32.4248 18.5035 32.8334 18.2119 33.1423C17.9203 33.4512 17.5218 33.637 17.0977 33.6619C16.6736 33.6868 16.256 33.5489 15.9303 33.2762C15.6045 33.0036 15.3952 32.6168 15.345 32.195L15.3333 32V30.3333C15.3333 29.8913 15.5089 29.4674 15.8215 29.1548C16.1341 28.8422 16.558 28.6666 17 28.6666Z" stroke="white"/>
<path d="M27.5217 25.1833L27.6784 25.3217L28.845 26.4883C29.1439 26.7883 29.3175 27.1907 29.3304 27.614C29.3433 28.0372 29.1947 28.4495 28.9146 28.7671C28.6345 29.0847 28.2441 29.2838 27.8226 29.324C27.401 29.3641 26.98 29.2423 26.645 28.9833L26.4884 28.845L25.3217 27.6783C25.0341 27.3912 24.8613 27.0089 24.8358 26.6033C24.8103 26.1977 24.9339 25.7968 25.1833 25.476C25.4327 25.1551 25.7907 24.9364 26.19 24.861C26.5894 24.7857 27.0025 24.8588 27.3517 25.0667L27.5217 25.1833Z" stroke="white"/>
<path d="M8.67834 25.3216C8.9653 25.6086 9.13769 25.9904 9.16316 26.3955C9.18863 26.8005 9.06543 27.2009 8.81668 27.5216L8.67834 27.6783L7.51168 28.8449C7.21175 29.1439 6.80929 29.3174 6.38604 29.3303C5.96279 29.3433 5.55049 29.1946 5.23288 28.9145C4.91527 28.6345 4.71617 28.244 4.67601 27.8225C4.63586 27.401 4.75766 26.9799 5.01668 26.6449L5.15501 26.4883L6.32168 25.3216C6.63422 25.0092 7.05807 24.8336 7.50001 24.8336C7.94195 24.8336 8.3658 25.0092 8.67834 25.3216Z" stroke="white"/>
<path d="M3.66669 15.3333C4.09149 15.3338 4.50008 15.4964 4.80897 15.7881C5.11787 16.0797 5.30375 16.4782 5.32864 16.9023C5.35354 17.3264 5.21557 17.7439 4.94292 18.0697C4.67027 18.3955 4.28352 18.6048 3.86169 18.655L3.66669 18.6666H2.00003C1.57523 18.6662 1.16664 18.5035 0.857745 18.2119C0.548851 17.9203 0.362967 17.5217 0.338072 17.0977C0.313177 16.6736 0.45115 16.256 0.7238 15.9303C0.996451 15.6045 1.3832 15.3952 1.80503 15.345L2.00003 15.3333H3.66669Z" stroke="white"/>
<path d="M32 15.3333C32.4248 15.3338 32.8334 15.4964 33.1423 15.7881C33.4512 16.0797 33.6371 16.4782 33.662 16.9023C33.6869 17.3264 33.5489 17.7439 33.2763 18.0697C33.0036 18.3955 32.6169 18.6048 32.195 18.655L32 18.6666H30.3334C29.9086 18.6662 29.5 18.5035 29.1911 18.2119C28.8822 17.9203 28.6963 17.5217 28.6714 17.0977C28.6465 16.6736 28.7845 16.256 29.0571 15.9303C29.3298 15.6045 29.7165 15.3952 30.1384 15.345L30.3334 15.3333H32Z" stroke="white"/>
<path d="M7.35502 5.0166L7.51169 5.15494L8.67836 6.3216C8.97727 6.62153 9.15081 7.02399 9.16374 7.44724C9.17666 7.87049 9.028 8.28279 8.74794 8.6004C8.46789 8.91801 8.07744 9.11711 7.6559 9.15727C7.23436 9.19742 6.81334 9.07562 6.47836 8.8166L6.32169 8.67827L5.15502 7.5116C4.86851 7.2244 4.69658 6.84256 4.67147 6.43766C4.64636 6.03275 4.76979 5.63259 5.01863 5.31219C5.26746 4.99179 5.62462 4.77315 6.02314 4.69726C6.42165 4.62136 6.83417 4.69342 7.18336 4.89994L7.35502 5.0166Z" stroke="white"/>
<path d="M28.845 5.15499C29.132 5.44198 29.3044 5.82381 29.3298 6.22885C29.3553 6.6339 29.2321 7.03432 28.9834 7.35499L28.845 7.51166L27.6784 8.67832C27.3784 8.97724 26.976 9.15078 26.5527 9.1637C26.1295 9.17663 25.7172 9.02796 25.3996 8.74791C25.0819 8.46785 24.8828 8.0774 24.8427 7.65587C24.8025 7.23433 24.9243 6.81331 25.1834 6.47832L25.3217 6.32166L26.4884 5.15499C26.8009 4.84254 27.2247 4.66701 27.6667 4.66701C28.1086 4.66701 28.5325 4.84254 28.845 5.15499Z" stroke="white"/>
<path d="M17 0.333313C17.4082 0.333367 17.8022 0.48324 18.1073 0.754505C18.4124 1.02577 18.6073 1.39956 18.655 1.80498L18.6667 1.99998V3.66665C18.6662 4.09145 18.5035 4.50003 18.2119 4.80893C17.9203 5.11782 17.5218 5.3037 17.0977 5.3286C16.6736 5.35349 16.256 5.21552 15.9303 4.94287C15.6045 4.67022 15.3952 4.28347 15.345 3.86165L15.3333 3.66665V1.99998C15.3333 1.55795 15.5089 1.13403 15.8215 0.821468C16.1341 0.508908 16.558 0.333313 17 0.333313Z" stroke="white"/>
<path d="M17 8.66665C18.6328 8.66655 20.2297 9.14613 21.5922 10.0458C22.9548 10.9455 24.023 12.2256 24.6643 13.7272C25.3055 15.2289 25.4915 16.8858 25.1991 18.4922C24.9068 20.0986 24.1489 21.5837 23.0197 22.7631C21.8905 23.9425 20.4398 24.7641 18.8476 25.126C17.2554 25.4879 15.592 25.3741 14.0639 24.7988C12.5359 24.2234 11.2105 23.2118 10.2524 21.8896C9.2944 20.5674 8.74588 18.9929 8.67502 17.3616L8.66668 17L8.67502 16.6383C8.76821 14.4929 9.68603 12.4663 11.2371 10.9811C12.7881 9.49588 14.8526 8.66677 17 8.66665Z" stroke="white"/>
</svg>
